<?xml version="1.0" encoding="utf-8"?>
<!-- Generator: Adobe Illustrator 25.4.1, SVG Export Plug-In . SVG Version: 6.00 Build 0)  -->
<svg version="1.1" id="圖層_1" xmlns="http://www.w3.org/2000/svg" xmlns:xlink="http://www.w3.org/1999/xlink" x="0px" y="0px"
	 viewBox="0 0 60 60" style="enable-background:new 0 0 60 60;" xml:space="preserve">
<style type="text/css">
	.st0{fill:#45546B;}
</style>
<g>
	<g>
		<g>
			<path class="st0" d="M10.81,8.47C5.05,13.96,0.86,21.79,0.78,30.56C0.64,44.91,9.52,58.11,28.71,60V41.5L10.82,30.84L10.81,9.35
				L10.81,8.47z"/>
		</g>
		<g>
			<path class="st0" d="M49.4,8.51c5.77,5.49,9.74,13.28,9.82,22.05C59.35,44.91,50.66,58.11,31.47,60V41.5l17.94-10.67V9.39
				L49.4,8.51z"/>
		</g>
	</g>
	<g>
		<g>
			<path class="st0" d="M30.09,0L13.81,9.71v19.42l16.28,9.71l16.28-9.71V9.71L30.09,0z M30.09,29.82c-5.53,0-10.01-4.66-10.01-10.4
				c0-5.74,4.48-10.4,10.01-10.4c5.53,0,10.01,4.66,10.01,10.4C40.1,25.16,35.62,29.82,30.09,29.82z"/>
		</g>
	</g>
</g>
</svg>
